<svg width="30" height="30" viewBox="0 0 30 30" fill="none" xmlns="http://www.w3.org/2000/svg">
<rect width="30" height="30" rx="15" fill="black"/>
<path d="M24.9807 13.5481C24.9445 13.4817 24.9067 13.4152 24.8623 13.3422C24.5665 12.8473 24.2147 12.3889 23.8169 11.9803L23.8103 11.9737C23.7627 11.9255 23.7232 11.8857 23.6871 11.8491C23.4043 11.5718 23.0953 11.3143 22.7666 11.0852C22.7567 11.0785 22.7468 11.0719 22.7386 11.0652C22.714 11.0486 22.691 11.032 22.6663 11.0154C22.6581 11.0088 22.6482 11.0038 22.64 10.9971C22.64 10.9888 22.64 10.9805 22.64 10.9722C22.64 10.9606 22.64 10.949 22.64 10.9373C22.64 10.9257 22.64 10.9141 22.64 10.9025C22.6334 10.5089 22.594 10.1152 22.5266 9.73493L22.5184 9.68842C22.5101 9.64358 22.5019 9.6004 22.4937 9.55888V9.55224C22.3721 8.95601 22.1798 8.37806 21.9184 7.83166C21.8888 7.76688 21.8543 7.69879 21.8148 7.6224L21.7754 7.546L21.6949 7.5161C21.6225 7.48787 21.5486 7.4613 21.4762 7.43805C21.21 7.34504 20.9355 7.26865 20.6642 7.20886C20.3881 7.14741 20.1054 7.10257 19.821 7.07433C19.7635 7.06769 19.7027 7.06271 19.6386 7.05772C19.2145 7.02617 18.7838 7.03115 18.3581 7.07599C18.3334 7.07765 18.3071 7.08098 18.2825 7.0843C18.2775 7.07765 18.2726 7.07101 18.266 7.06603C18.003 6.75546 17.7137 6.46648 17.408 6.2074C17.3603 6.16754 17.3127 6.12768 17.2683 6.09114L17.265 6.08782C16.79 5.70584 16.2689 5.38198 15.715 5.12788C15.6492 5.09799 15.5785 5.06643 15.4996 5.03322L15.4224 5L15.3435 5.02823C15.2827 5.04982 15.2021 5.07806 15.1249 5.10961C14.5939 5.31721 14.086 5.58626 13.6192 5.91012L13.5436 5.96326C13.5173 5.98153 13.4926 5.9998 13.4696 6.01807C13.1047 6.28379 12.7628 6.58606 12.4522 6.9149C12.0478 6.84514 11.6369 6.81027 11.2292 6.81027C11.1701 6.81027 11.1076 6.81027 11.0451 6.81359C10.437 6.82687 9.83042 6.91822 9.24032 7.0843C9.16799 7.10423 9.09238 7.12748 9.01513 7.15239L8.93623 7.17896L8.89349 7.25038C8.85568 7.31349 8.81788 7.38158 8.77679 7.45466C8.499 7.96286 8.28038 8.50428 8.12587 9.06729C8.10943 9.12874 8.09464 9.18853 8.07984 9.24831C7.973 9.68012 7.90397 10.1252 7.87602 10.5736C7.51933 10.7862 7.17744 11.0287 6.86348 11.2961C6.81582 11.3359 6.76979 11.3758 6.72212 11.4173C6.2701 11.8209 5.86574 12.2826 5.52384 12.7875L5.51891 12.7941C5.47289 12.8605 5.4318 12.9237 5.39399 12.9851L5.34961 13.0565L5.36276 13.1412C5.37591 13.2243 5.3907 13.3007 5.40385 13.3754C5.51563 13.9517 5.69644 14.5164 5.93971 15.0511L5.943 15.0578C5.9693 15.1142 5.9956 15.169 6.02189 15.2239L6.0597 15.3019C6.24215 15.6656 6.45748 16.0177 6.69747 16.3466C6.55611 16.7485 6.44762 17.1653 6.37694 17.5822V17.5855C6.36708 17.647 6.35722 17.7067 6.34735 17.7665C6.26024 18.3628 6.24544 18.9689 6.30462 19.5702C6.31283 19.6482 6.32105 19.7279 6.33092 19.8027L6.34242 19.8874L6.40653 19.9438C6.46735 19.997 6.52652 20.0468 6.58569 20.095L6.59391 20.1016C7.05087 20.4736 7.55221 20.7892 8.08806 21.0416L8.10779 21.0516C8.12916 21.0615 8.14888 21.0715 8.17189 21.0815L8.25737 21.1197C8.64857 21.2924 9.05622 21.4319 9.47208 21.5332C9.62166 21.9418 9.8074 22.337 10.0244 22.7091L10.0474 22.7473C10.072 22.7888 10.0967 22.8303 10.1214 22.8718C10.432 23.3767 10.8019 23.8434 11.2227 24.2586C11.2818 24.3167 11.3394 24.3715 11.392 24.4197L11.4544 24.4795H11.5399C11.6171 24.4795 11.696 24.4795 11.7733 24.4795C12.0478 24.4745 12.3256 24.4529 12.5968 24.4164C12.8697 24.3798 13.1458 24.3267 13.4187 24.2569L13.5272 24.2287C13.5863 24.2121 13.6439 24.1971 13.703 24.1789C14.1107 24.0576 14.5118 23.8998 14.8947 23.7089C14.903 23.7138 14.9112 23.7188 14.9194 23.7221C14.926 23.7255 14.9342 23.7304 14.9408 23.7338C15.3073 23.9397 15.6903 24.1158 16.0815 24.2553C16.1111 24.2652 16.139 24.2752 16.1686 24.2868L16.2574 24.3167C16.8113 24.4994 17.3866 24.614 17.9702 24.6588L18.0869 24.6671C18.1247 24.6688 18.1641 24.6721 18.2036 24.6738L18.289 24.6771L18.3548 24.6223C18.4238 24.5658 18.4797 24.5177 18.5323 24.4712C18.9465 24.1058 19.3213 23.6939 19.6451 23.2438L19.7092 23.1525V23.1492C19.7454 23.0993 19.7799 23.0495 19.8128 22.998C19.9443 22.7971 20.0659 22.5928 20.1744 22.3885L20.2155 22.3088C20.2812 22.1809 20.3454 22.0481 20.4062 21.9102C20.4111 21.9003 20.416 21.8886 20.421 21.8787C20.4259 21.8687 20.4292 21.8587 20.4341 21.8488C20.439 21.8488 20.4423 21.8488 20.4473 21.8471C20.4522 21.8471 20.4555 21.8471 20.4604 21.8454C20.4719 21.8438 20.4851 21.8405 20.4966 21.8388C20.5262 21.8338 20.5541 21.8272 20.5821 21.8222C20.9601 21.7441 21.3332 21.6362 21.6899 21.5017L21.7754 21.4684C21.805 21.4568 21.8329 21.4452 21.8625 21.4336C22.4049 21.2127 22.9194 20.927 23.3945 20.5832L23.4898 20.5135L23.6492 20.3889L23.664 20.3075C23.6723 20.2693 23.6788 20.2312 23.6854 20.1913L23.7051 20.075C23.7939 19.4971 23.8153 18.9092 23.7692 18.3279C23.7643 18.2614 23.7577 18.1934 23.7528 18.1419C23.7298 17.9226 23.6969 17.7001 23.6525 17.4792C23.618 17.3065 23.5769 17.1321 23.5309 16.9594C23.5276 16.9478 23.5243 16.9378 23.521 16.9262C23.5178 16.9145 23.5145 16.9046 23.5112 16.893C23.5062 16.873 23.4997 16.8531 23.4947 16.8332C23.5112 16.8132 23.5276 16.7933 23.5441 16.7734C23.5506 16.7651 23.5588 16.7551 23.5654 16.7468C23.572 16.7385 23.5802 16.7285 23.5868 16.7202C23.8054 16.4429 24.0043 16.1489 24.1802 15.845L24.2229 15.7703C24.2525 15.7171 24.2821 15.6623 24.3117 15.6075C24.5895 15.0827 24.8064 14.523 24.9527 13.9434L24.9807 13.8288C24.9889 13.7972 24.9955 13.7657 25.002 13.7341L25.0251 13.6295L24.984 13.5548L24.9807 13.5481ZM22.0039 11.3359L22.0581 11.3642L22.0631 11.3691V11.3841L22.0581 11.419L22.0384 11.595V11.6133C22.0039 12.0268 21.9332 12.437 21.828 12.8323L21.8001 12.9353C21.7803 13.0067 21.7573 13.0831 21.7294 13.1695C21.6801 13.3222 21.6258 13.4734 21.565 13.6212C21.1426 13.2409 20.6774 12.9104 20.1826 12.6347H20.1793C20.153 12.6181 20.1267 12.6031 20.1021 12.5898L20.0544 12.5649C20.0544 12.5649 20.0462 12.5599 20.0429 12.5583C20.0396 12.5566 20.0363 12.555 20.033 12.5533L19.9163 12.4935L19.9278 12.3689C19.9344 12.2992 19.9394 12.2427 19.9426 12.1896C19.9854 11.6365 19.9689 11.0835 19.895 10.5437C20.0873 10.5803 20.278 10.6268 20.4637 10.6799L20.4982 10.6899C20.5837 10.7148 20.6544 10.738 20.7234 10.7596C21.1064 10.8859 21.4828 11.0519 21.8428 11.2512L21.9726 11.3177L22.0039 11.3343V11.3359ZM20.0725 15.6224L19.6731 16.0327L19.9426 16.7219C20.1284 17.2068 20.2599 17.7084 20.3338 18.2116L20.3388 18.2465C20.3421 18.2714 20.3454 18.298 20.3503 18.3262C20.3158 18.3395 20.2829 18.3511 20.25 18.3611C19.775 18.5205 19.2786 18.6268 18.7772 18.6783L18.7361 18.6816C18.7082 18.685 18.677 18.6883 18.6441 18.6899L18.0096 18.7348L17.8354 19.2928C17.8206 19.3376 17.8041 19.3875 17.7844 19.4473L17.7647 19.5037C17.6053 19.9621 17.3998 20.4022 17.1549 20.8124L17.1434 20.8324C17.1236 20.8672 17.1006 20.9038 17.0743 20.9436L16.9872 20.9088C16.5072 20.7178 16.047 20.4703 15.6229 20.1763C15.5999 20.1614 15.5802 20.1465 15.5588 20.1315L15.5013 20.0916L15.0131 19.7329L14.5233 20.0568C14.4871 20.0817 14.446 20.1066 14.3934 20.1398C13.9628 20.4022 13.5074 20.6165 13.0373 20.7776H13.0324C12.988 20.7942 12.942 20.8108 12.8976 20.8241C12.8878 20.8074 12.8795 20.7908 12.8697 20.7742L12.8483 20.7327C12.6067 20.281 12.4144 19.7977 12.2746 19.2945L12.2664 19.2662C12.2598 19.2413 12.2516 19.2098 12.2418 19.1732L12.0922 18.5604L11.655 18.5056C11.5826 18.4973 11.5103 18.4873 11.438 18.4774C11.41 18.474 11.3821 18.469 11.3542 18.4657C11.106 18.4275 10.8577 18.3727 10.6145 18.3063C10.3827 18.2432 10.1509 18.1668 9.92904 18.0804L9.89452 18.0671C9.85507 18.0522 9.81562 18.0356 9.77453 18.019C9.7811 17.9824 9.78932 17.9426 9.79919 17.8961L9.82055 17.7997C9.92246 17.3347 10.0753 16.878 10.2726 16.4396C10.2824 16.4163 10.3005 16.3798 10.3153 16.3482L10.3186 16.3416C10.3581 16.2569 10.3893 16.1722 10.4172 16.0974L10.5635 15.7038L10.2759 15.4099L10.2019 15.3318C10.1641 15.2903 10.1296 15.2521 10.0967 15.2122C9.9274 15.0146 9.76795 14.8087 9.62166 14.5977C9.48523 14.3984 9.35867 14.1942 9.24854 13.9899L9.22059 13.9367C9.2058 13.9085 9.19101 13.8803 9.17621 13.852C9.17621 13.8487 9.17292 13.8454 9.17128 13.8421L9.18772 13.8288L9.29292 13.7441C9.65618 13.4568 10.0523 13.206 10.4715 12.9967L10.5717 12.9486C10.6178 12.9253 10.6589 12.907 10.6999 12.8888L11.2079 12.6612V12.1016C11.2079 12.0866 11.2079 12.0733 11.2079 12.0617V12.0152C11.2046 11.9787 11.2029 11.9471 11.2029 11.9172V11.8989C11.1931 11.4057 11.2342 10.9108 11.3262 10.4308L11.3509 10.3079C11.3542 10.288 11.3591 10.268 11.364 10.2481C11.415 10.2481 11.4692 10.2498 11.535 10.2531L11.6287 10.2564C12.084 10.2813 12.5426 10.3527 12.9913 10.469C13.0488 10.4839 13.0965 10.4972 13.1392 10.5089L13.7113 10.6799L14.0959 10.1551C14.0959 10.1551 14.109 10.1385 14.1156 10.1285L14.1731 10.0588C14.4805 9.6768 14.8257 9.32803 15.1972 9.02411L15.2827 8.95601C15.2975 8.94273 15.3139 8.9311 15.3287 8.91948L15.3402 8.92944C15.3731 8.95767 15.4059 8.98757 15.4438 9.02245L15.4585 9.03573C15.8185 9.36623 16.1456 9.73825 16.4333 10.1451L16.4645 10.1883L16.4678 10.1916C16.4859 10.2166 16.504 10.2431 16.522 10.2714L16.8393 10.7563L17.4014 10.6384C17.4261 10.6334 17.4507 10.6284 17.4738 10.6218C17.505 10.6151 17.5379 10.6085 17.5724 10.6019C18.0934 10.4989 18.626 10.4557 19.1421 10.474H19.1553C19.1734 10.474 19.1915 10.474 19.2095 10.4756C19.2178 10.5205 19.2243 10.572 19.2342 10.6334C19.3016 11.125 19.3164 11.6299 19.2769 12.1331V12.1597L19.2753 12.1647C19.2736 12.2012 19.2687 12.2444 19.2638 12.2992L19.2062 12.8871L19.7174 13.1462C19.7174 13.1462 19.7322 13.1545 19.7405 13.1595L19.8654 13.2276C20.2845 13.4601 20.6807 13.7391 21.0439 14.0547L21.1343 14.136C21.1557 14.1543 21.1754 14.1726 21.1952 14.1908C21.1754 14.2257 21.1524 14.2623 21.1261 14.3071C20.7497 14.9266 20.25 15.4464 20.1941 15.5045C20.1465 15.5544 20.107 15.5926 20.0824 15.6175L20.0774 15.6224H20.0725ZM10.5306 11.9172V11.9222C10.5306 11.9637 10.5306 12.0102 10.5339 12.0634V12.0717C10.5339 12.0717 10.5339 12.0733 10.5339 12.0783C10.5339 12.08 10.5339 12.0833 10.5339 12.0883C10.5339 12.0933 10.5339 12.0982 10.5339 12.1049V12.2245L10.4254 12.2726C10.3761 12.2942 10.3252 12.3191 10.2693 12.3457L10.1723 12.3922C9.73672 12.6098 9.3225 12.8688 8.94116 13.1628C8.89349 13.015 8.84911 12.8639 8.8113 12.7127L8.80473 12.6862C8.785 12.6064 8.76692 12.5251 8.75049 12.4437C8.6683 12.0451 8.62227 11.6349 8.61406 11.223L8.60419 10.9755L8.82281 10.8742H8.8261C9.22388 10.6816 9.64139 10.5304 10.0704 10.4208C10.1477 10.4009 10.2266 10.3826 10.3087 10.366C10.4271 10.3411 10.5454 10.3179 10.6638 10.2996C10.5619 10.8294 10.5175 11.3708 10.529 11.9139L10.5306 11.9172ZM19.5876 7.73035C19.6451 7.73533 19.6977 7.73865 19.7487 7.74529H19.7536C20.0117 7.77187 20.2697 7.81173 20.5212 7.86819C20.7678 7.92134 21.016 7.99275 21.2593 8.07579H21.2642C21.2757 8.08077 21.2856 8.08576 21.2971 8.08908C21.302 8.1007 21.3069 8.11233 21.3135 8.12562C21.5486 8.61721 21.7228 9.1387 21.8329 9.67514L21.8362 9.69507C21.8461 9.74655 21.8559 9.79804 21.8658 9.84952L21.8905 9.99899C21.9184 10.1784 21.9381 10.3627 21.9513 10.5454C21.6209 10.376 21.279 10.2332 20.9322 10.1169C20.8549 10.0903 20.7727 10.0654 20.6757 10.0372L20.6494 10.0289H20.6445C20.3815 9.95249 20.1119 9.89104 19.8424 9.8462C19.7783 9.62033 19.701 9.3928 19.6122 9.17026V9.16527C19.5794 9.08888 19.5465 9.00584 19.5054 8.91283C19.323 8.49763 19.1011 8.09572 18.8446 7.71706C19.0928 7.7071 19.341 7.71208 19.5876 7.73035ZM18.0836 7.79844L18.0869 7.80176H18.0918L18.2151 7.98777L18.2249 8.00106C18.4879 8.37474 18.7115 8.77167 18.8923 9.1852V9.19019C18.9252 9.25994 18.9515 9.32305 18.9745 9.38284L18.9876 9.41439C19.0369 9.54227 19.0846 9.67016 19.1257 9.7997C18.5652 9.78309 17.9965 9.83125 17.4392 9.94087C17.3998 9.94917 17.3603 9.95747 17.3209 9.96578C17.3028 9.97076 17.2831 9.97408 17.2634 9.97906L17.1434 10.004L17.076 9.90101C17.0415 9.84952 17.0102 9.80302 16.9774 9.75818V9.75486C16.6683 9.31973 16.3166 8.91782 15.9303 8.56074C16.0749 8.48103 16.2229 8.40463 16.3708 8.33654L16.4793 8.28837C16.5434 8.26014 16.6141 8.23025 16.7045 8.19371L16.7357 8.18208C17.0957 8.04092 17.4705 7.92964 17.8518 7.85325L18.0869 7.8001L18.0836 7.79844ZM13.8576 6.56447L13.8608 6.56115C13.8806 6.5462 13.9003 6.53125 13.9217 6.51797L13.9956 6.46648C14.4197 6.17252 14.88 5.92838 15.3632 5.73905H15.3681C15.3796 5.73241 15.3895 5.72909 15.401 5.72411C15.4125 5.72909 15.4257 5.73573 15.4372 5.74071C15.9352 5.9699 16.4053 6.25888 16.8343 6.60267L16.8442 6.61097C16.8902 6.64917 16.9363 6.68571 16.9757 6.72058C17.1631 6.88002 17.3439 7.05108 17.5149 7.23211C17.1532 7.31515 16.7982 7.42642 16.4563 7.56427L16.4497 7.56759C16.3544 7.60579 16.2771 7.639 16.2064 7.67056L16.0914 7.72204L16.0733 7.73035C15.853 7.83332 15.6328 7.94957 15.4224 8.07579C15.2301 7.94625 15.0295 7.82335 14.8257 7.71208L14.8093 7.70211C14.7369 7.66392 14.6597 7.6224 14.5676 7.57589L14.5611 7.57257C14.1403 7.36497 13.6965 7.19723 13.2412 7.07267C13.4368 6.88998 13.6422 6.72058 13.8576 6.56281V6.56447ZM12.6248 7.84162L12.7743 7.64565L12.9979 7.71042L13.0094 7.71374C13.445 7.82833 13.8691 7.98611 14.2701 8.1854L14.3046 8.20201C14.3457 8.2236 14.3852 8.24353 14.4214 8.2618L14.4904 8.3C14.5956 8.35647 14.6991 8.41626 14.8011 8.47937L14.7748 8.50096C14.3572 8.84142 13.971 9.23171 13.6307 9.65853L13.5896 9.70835C13.5765 9.72496 13.565 9.73991 13.5535 9.75486L13.445 9.90101L13.3233 9.86447C13.2675 9.84786 13.2132 9.83291 13.154 9.81797C12.6609 9.69009 12.1563 9.61203 11.6566 9.58546H11.6221C11.6895 9.40941 11.7667 9.23669 11.8489 9.06729C11.8851 8.99255 11.9229 8.91782 11.9623 8.84474L11.9706 8.82979C12.1579 8.48269 12.3782 8.15053 12.6231 7.84162H12.6248ZM8.72747 9.40941C8.74062 9.35959 8.75377 9.30146 8.77021 9.24499C8.90993 8.73347 9.10882 8.24187 9.36195 7.77851L9.38168 7.74363C9.39483 7.74031 9.40798 7.73699 9.41948 7.73201C9.95534 7.58088 10.506 7.49784 11.0583 7.48621H11.0698C11.1224 7.48455 11.1783 7.48289 11.2276 7.48289C11.4906 7.48289 11.7536 7.4995 12.0166 7.53105C11.7782 7.84328 11.5646 8.1771 11.3788 8.52255V8.52587C11.3344 8.60559 11.2933 8.68697 11.2555 8.76502C11.124 9.03075 11.009 9.30644 10.9136 9.58379C10.9136 9.58379 10.9136 9.58545 10.9136 9.58712C10.8906 9.58878 10.8676 9.5921 10.8446 9.59542C10.621 9.62199 10.3991 9.65853 10.1789 9.70669C10.0885 9.72496 9.99972 9.74655 9.91425 9.76814C9.45729 9.8844 9.00855 10.0455 8.58118 10.2481C8.61406 9.96412 8.66501 9.68178 8.73405 9.40775L8.72747 9.40941ZM6.65802 14.9963L6.62186 14.9216C6.60377 14.8851 6.58569 14.8485 6.56926 14.8103L6.55118 14.7705C6.32927 14.2838 6.16326 13.769 6.06134 13.2392C6.0597 13.2276 6.05641 13.2143 6.05313 13.201L6.13367 13.0831C6.43283 12.6563 6.77801 12.266 7.16264 11.9239C7.20702 11.884 7.24976 11.8475 7.2925 11.8109C7.49961 11.6349 7.71987 11.4705 7.94999 11.3193C7.96478 11.7462 8.01409 12.1713 8.09957 12.5849C8.11765 12.6729 8.13737 12.7626 8.15874 12.8473V12.8506C8.22449 13.1146 8.30339 13.3754 8.39544 13.6295C8.39873 13.6395 8.40366 13.6511 8.40695 13.661C8.40859 13.666 8.41188 13.6727 8.41352 13.6793C8.40695 13.686 8.40037 13.6926 8.3938 13.7009C8.38722 13.7092 8.379 13.7175 8.37078 13.7258C8.20641 13.9002 8.04861 14.0879 7.89903 14.2838L7.81849 14.3918C7.79055 14.4283 7.76425 14.4649 7.73795 14.5031C7.4766 14.8734 7.24647 15.2704 7.0558 15.6822C6.90951 15.4613 6.77637 15.2322 6.65802 14.9963ZM8.52365 20.4985L8.44311 20.462C8.42503 20.4537 8.40859 20.4471 8.39051 20.4371L8.36914 20.4271C7.88095 20.1963 7.42071 19.9056 7.00484 19.5668L6.97526 19.5419L6.97033 19.5004C6.91608 18.954 6.92923 18.4026 7.00813 17.8612V17.8562C7.01635 17.7981 7.02621 17.74 7.03443 17.6901V17.6768C7.0821 17.4144 7.14456 17.152 7.22182 16.8946C7.51769 17.2334 7.84643 17.544 8.19655 17.8213L8.30503 17.9044C8.3412 17.9326 8.37736 17.9592 8.41516 17.9858C8.6157 18.1319 8.8261 18.2698 9.04143 18.396C9.06115 18.4076 9.08252 18.4192 9.10224 18.4308C9.10224 18.4375 9.10224 18.4458 9.10224 18.4524C9.08581 18.7198 9.08252 18.9905 9.09567 19.2596C9.09896 19.3459 9.10553 19.4373 9.11211 19.5303C9.14662 19.9521 9.2173 20.374 9.3225 20.7875C9.05129 20.7078 8.78336 20.6098 8.52365 20.4952V20.4985ZM9.6644 16.1622C9.44743 16.6438 9.28141 17.1471 9.16799 17.6569L9.16306 17.6835C9.04143 17.6071 8.92308 17.5257 8.80802 17.441C8.77185 17.4144 8.74062 17.3912 8.71104 17.3696L8.60748 17.2899C8.28038 17.0325 7.97629 16.7402 7.70014 16.4246L7.53577 16.2419L7.63604 16.0293L7.64097 16.0194C7.81849 15.6258 8.03382 15.2488 8.28202 14.8983C8.30339 14.8684 8.32805 14.8336 8.35106 14.8004L8.42996 14.6957C8.51379 14.5861 8.60091 14.4798 8.69131 14.3768C8.80637 14.5844 8.93458 14.792 9.07266 14.9913C9.2321 15.2222 9.40798 15.4497 9.59372 15.664C9.63317 15.7105 9.67262 15.7536 9.71207 15.7968L9.7696 15.8583L9.78768 15.8765C9.76467 15.9397 9.74001 16.0044 9.71371 16.0609C9.69727 16.0958 9.67755 16.1373 9.66604 16.1639L9.6644 16.1622ZM10.0605 20.9652L10.0079 20.7593L9.99972 20.7261C9.88959 20.3208 9.81562 19.9023 9.7811 19.4855V19.4821C9.77453 19.3958 9.7696 19.3111 9.76467 19.233C9.75809 19.0703 9.75645 18.9058 9.76138 18.7431C9.98493 18.8278 10.2134 18.9025 10.4435 18.9656C10.7098 19.0387 10.9843 19.0968 11.2572 19.14C11.2868 19.145 11.3163 19.1483 11.3476 19.1533C11.4183 19.1633 11.4873 19.1732 11.5563 19.1815L11.5909 19.3244C11.5909 19.3244 11.5909 19.331 11.5925 19.3327L11.5958 19.3459C11.6073 19.3908 11.6172 19.4323 11.6303 19.4755C11.7782 20.0119 11.9821 20.5301 12.2368 21.0134C12.1021 21.0333 11.9673 21.0466 11.8308 21.0582C11.7437 21.0649 11.6648 21.0699 11.5843 21.0732C11.4955 21.0765 11.4035 21.0782 11.3131 21.0782C10.9777 21.0782 10.6375 21.0516 10.3022 21.0001L10.0605 20.9685V20.9652ZM13.5091 23.5278C13.4581 23.5428 13.4055 23.5577 13.3562 23.571L13.251 23.5992C13.0045 23.6624 12.753 23.7105 12.5048 23.7421C12.2582 23.7753 12.0051 23.7952 11.7552 23.8002C11.7421 23.8002 11.7289 23.8002 11.7158 23.8002C11.7059 23.7919 11.6977 23.7819 11.6862 23.772C11.3048 23.395 10.9679 22.9715 10.6852 22.5131C10.6621 22.4765 10.6408 22.44 10.6194 22.4035L10.598 22.3669C10.4682 22.1444 10.3515 21.9119 10.2463 21.6727C10.6983 21.7392 11.1585 21.7641 11.6106 21.7458C11.696 21.7425 11.7865 21.7375 11.8834 21.7292C12.1399 21.7093 12.3996 21.6744 12.656 21.6262C12.8204 21.8537 12.9979 22.073 13.1853 22.2756C13.2477 22.3437 13.3102 22.4101 13.371 22.4716C13.6488 22.7539 13.9496 23.0146 14.2685 23.2488C14.0203 23.3568 13.7655 23.4498 13.5058 23.5262L13.5091 23.5278ZM15.1939 22.8203C15.1282 22.8619 15.0641 22.905 15.0016 22.9449L14.8158 22.8087L14.8027 22.7987C14.4608 22.5612 14.1403 22.2905 13.8477 21.9916C13.7918 21.9351 13.7359 21.877 13.68 21.8139C13.5568 21.6794 13.4384 21.5382 13.325 21.392C13.8148 21.2193 14.2915 20.9918 14.7419 20.7161C14.7928 20.6845 14.8405 20.6547 14.8898 20.6231L14.9934 20.5533L15.0986 20.6314C15.1084 20.638 15.1167 20.6447 15.1265 20.6513H15.1282C15.1643 20.6796 15.2005 20.7045 15.2399 20.7327C15.7018 21.0532 16.2015 21.3223 16.7242 21.5316C16.6338 21.6345 16.5401 21.7342 16.4448 21.8305L16.3347 21.9384C16.3051 21.9667 16.2755 21.9949 16.2442 22.0231C15.9254 22.3171 15.5753 22.5828 15.2038 22.8104L15.1906 22.8187L15.1939 22.8203ZM19.6188 21.9933L19.5794 22.068C19.4808 22.2523 19.3706 22.4383 19.2506 22.621C19.2178 22.6692 19.1849 22.7174 19.1553 22.7622L19.0978 22.8452C18.8035 23.2538 18.4633 23.6291 18.0869 23.9596C18.077 23.9679 18.0688 23.9762 18.0589 23.9845L18.0145 23.9812C17.4886 23.9397 16.9658 23.8367 16.4645 23.6723L16.3774 23.6424C16.3527 23.6341 16.3281 23.6258 16.3018 23.6159C16.0782 23.5361 15.8563 23.4431 15.641 23.3385C16.0174 23.0993 16.3741 22.827 16.6996 22.5247C16.7324 22.4932 16.7653 22.4633 16.7982 22.4317L16.8968 22.337C17.076 22.1593 17.2486 21.9667 17.4129 21.7657C17.6743 21.8305 17.9439 21.882 18.2134 21.9185L18.3449 21.9351C18.3893 21.9401 18.4337 21.9451 18.4781 21.9484C18.8578 21.985 19.2473 21.9899 19.632 21.9667C19.627 21.9766 19.6221 21.9866 19.6172 21.9966L19.6188 21.9933ZM20.4522 19.3924L20.4423 19.5037C20.4341 19.5868 20.4243 19.6681 20.4144 19.7462C20.3569 20.178 20.2566 20.6048 20.1202 21.015L20.0561 21.2276L20.0511 21.2459L20.0462 21.2525L19.9541 21.2592L19.8226 21.2675H19.8046C19.3854 21.309 18.9597 21.309 18.5455 21.2675H18.5192C18.4847 21.2625 18.4551 21.2592 18.4288 21.2559L18.3006 21.2409C18.1132 21.216 17.9274 21.1828 17.7433 21.1413C18.0195 20.6779 18.248 20.1813 18.4222 19.6648V19.6598C18.4419 19.605 18.46 19.5502 18.4781 19.4938L18.5142 19.3758L18.6441 19.3659C18.6441 19.3659 18.6572 19.3659 18.6605 19.3659H18.6737C18.7213 19.3609 18.7674 19.3576 18.8085 19.3526H18.8134C19.3772 19.2978 19.9328 19.1782 20.4637 19.0005C20.467 19.0005 20.4703 18.9988 20.4736 18.9972C20.4703 19.13 20.4637 19.2612 20.4538 19.3908L20.4522 19.3924ZM20.5673 16.4744L20.4571 16.1938L20.5442 16.1041C20.5689 16.0792 20.6133 16.036 20.6675 15.9795C20.7678 15.8765 21.2872 15.3301 21.6932 14.6625C21.6965 14.6575 21.6998 14.6525 21.7031 14.6476C21.8017 14.7705 21.897 14.8983 21.9858 15.0262L22.0433 15.1109C22.091 15.1807 22.1337 15.2471 22.1748 15.3135L22.2241 15.3933C22.4247 15.7287 22.5989 16.0841 22.7419 16.4528L22.806 16.604L22.8192 16.6355L22.8323 16.6671L22.8372 16.6787C22.8372 16.6787 22.834 16.682 22.8323 16.6837L22.8159 16.6986L22.7912 16.7219L22.7666 16.7468L22.6745 16.8348L22.6581 16.8498C22.3556 17.1587 22.022 17.441 21.6669 17.6868C21.6012 17.7317 21.5338 17.7782 21.4631 17.8213C21.3119 17.9177 21.1541 18.0107 20.993 18.0937C20.9108 17.544 20.7678 16.9976 20.5656 16.4695L20.5673 16.4744ZM23.0427 19.9305L23.0312 20.0069L22.9967 20.0319C22.566 20.3424 22.0976 20.6032 21.6061 20.8025H21.6012C21.5765 20.8158 21.5551 20.8241 21.5338 20.8324L21.4499 20.8639C21.2412 20.9436 21.0259 21.0117 20.8072 21.0699C20.9322 20.6696 21.0226 20.2561 21.0785 19.8392C21.09 19.7512 21.1015 19.6598 21.1097 19.5668L21.1195 19.4506C21.1376 19.2314 21.1458 19.0071 21.1426 18.7829C21.3743 18.6667 21.6045 18.5371 21.8214 18.3976C21.897 18.3495 21.9726 18.2996 22.045 18.2482C22.3704 18.0223 22.6794 17.7699 22.9655 17.4942C22.9737 17.5307 22.9803 17.5672 22.9885 17.6038C23.0279 17.8064 23.0592 18.009 23.0789 18.2083C23.0838 18.2482 23.0887 18.2996 23.092 18.3478V18.3777C23.1364 18.8942 23.1183 19.4157 23.0411 19.9289L23.0427 19.9305ZM24.3002 13.7707C24.1654 14.2971 23.9698 14.8053 23.7183 15.2803C23.692 15.3285 23.6706 15.37 23.6509 15.4049L23.5966 15.4995C23.498 15.6689 23.3928 15.8334 23.2794 15.9945C23.1265 15.6341 22.9474 15.2853 22.7436 14.9565L22.7353 14.9432C22.6942 14.8767 22.6499 14.8087 22.6022 14.7356L22.5973 14.7273C22.446 14.5031 22.28 14.2838 22.1041 14.0729C22.2028 13.8471 22.2915 13.6129 22.3671 13.3771C22.3984 13.2824 22.423 13.1977 22.446 13.118L22.4756 13.01C22.5743 12.6363 22.6466 12.251 22.6877 11.8641C22.8751 12.0119 23.0542 12.1697 23.2252 12.3357C23.258 12.3689 23.2942 12.4055 23.3402 12.452L23.4126 12.5267C23.7446 12.8788 24.0421 13.2708 24.2919 13.6909C24.2985 13.7026 24.3067 13.7142 24.3133 13.7258L24.3035 13.769L24.3002 13.7707Z" fill="white"/>
<path fill-rule="evenodd" clip-rule="evenodd" d="M15.8651 15.5214C15.6538 15.7348 15.4269 15.923 15.1881 16.0858C14.9492 15.9229 14.7222 15.7348 14.5108 15.5212C14.2995 15.3078 14.1133 15.0786 13.9521 14.8373C14.1133 14.596 14.2996 14.3668 14.511 14.1532C14.7223 13.9398 14.9492 13.7516 15.188 13.5889C15.4269 13.7517 15.6539 13.9398 15.8652 14.1534C16.0766 14.3668 16.2628 14.5961 16.4239 14.8373C16.2628 15.0786 16.0765 15.3079 15.8651 15.5214Z" fill="white"/>
</svg>
